<svg id="Layer_5" enable-background="new 0 0 64 64" height="512" viewBox="0 0 64 64" width="512" xmlns="http://www.w3.org/2000/svg"><g><path d="m45.53 28.974-.766-.053c-4.301-.298-8.448-1.408-12.326-3.297l-.438-.214-.438.213c-3.885 1.894-8.042 3.003-12.354 3.299l-.761.052-.151.748c-1.499 7.425-3.149 16.54-3.286 19.851l-.014.338.194.277c1.146 1.636 5.964 4.836 14.147 8.298.805.341 1.663.514 2.553.514.984 0 1.935-.214 2.825-.636 8.264-3.913 12.702-6.947 13.991-8.357l.293-.32-.034-.433c-.249-3.18-1.862-12.172-3.289-19.527zm-20.53 18.026c-1.654 0-3-1.346-3-3 0-1.479 1.066-2.719 2.535-2.95l.563-.088.211-.53c.818-2.053 3.105-3.432 5.691-3.432 2.632 0 4.997 1.47 5.75 3.575l.334.934.936-.327c.352-.122.671-.182.98-.182 1.654 0 3 1.346 3 3s-1.346 3-3 3zm-7.972 2.285c.227-3.373 1.748-11.771 3.08-18.428 3.773-.339 7.426-1.277 10.892-2.781v6.924c-3.19 0-6.061 1.664-7.324 4.192-2.16.586-3.676 2.527-3.676 4.808 0 2.757 2.243 5 5 5h5.989l-.087 7.881c-.268-.058-.533-.129-.786-.236-7.692-3.255-11.934-6.108-13.088-7.36zm16.832 7.272c-.308.146-.63.251-.957.325l.086-7.882h6.011c2.757 0 5-2.243 5-5s-2.243-5-5-5c-.244 0-.489.02-.735.06-1.011-1.925-2.952-3.31-5.265-3.827v-7.157c3.456 1.5 7.097 2.437 10.857 2.779 1.261 6.544 2.735 14.756 3.073 18.101-1.324 1.212-5.232 3.889-13.07 7.601z"/><path d="m49.163 26.723c-.197-.998-1.08-1.723-2.101-1.723-.021 0-.041-.002-.062-.002v-8.998c0-8.271-6.729-15-15-15s-15 6.729-15 15v8.998c-.024 0-.048.002-.073.002-1.01 0-1.891.716-2.095 1.703-.898 4.353-3.832 18.9-3.832 23.297 0 4.191 9.124 8.932 16.778 12.17 1.302.551 2.685.83 4.112.83 1.581 0 3.107-.343 4.537-1.021 10.997-5.207 16.573-9.237 16.573-11.979 0-3.531-2.937-18.709-3.837-23.277zm-30.163-10.723c0-7.168 5.832-13 13-13s13 5.832 13 13v8.922c-1.347-.095-2.683-.289-4-.567v-8.355c0-4.962-4.038-9-9-9s-9 4.038-9 9v8.355c-1.317.278-2.652.471-4 .567zm20 7.857c-2.261-.646-4.45-1.551-6.504-2.725l-.496-.284-.496.284c-2.054 1.173-4.242 2.078-6.504 2.724v-7.856c0-3.86 3.14-7 7-7s7 3.14 7 7zm-3.428 36.315c-2.209 1.046-4.795 1.096-7.014.156-9.451-3.998-15.558-8.053-15.558-10.328 0-3.343 1.958-14.018 3.792-22.893.013-.064.067-.107.146-.107 5.258 0 10.453-1.331 15.062-3.854 4.609 2.523 9.805 3.854 15.063 3.854.068 0 .125.045.137.11 1.837 9.321 3.8 20.228 3.8 22.89 0 1.381-4.828 5.153-15.428 10.172z"/></g></svg>