<?xml version="1.0" encoding="iso-8859-1"?>
<!-- Generator: Adobe Illustrator 19.0.0, SVG Export Plug-In . SVG Version: 6.00 Build 0)  -->
<svg version="1.1" id="Capa_1" xmlns="http://www.w3.org/2000/svg" xmlns:xlink="http://www.w3.org/1999/xlink" x="0px" y="0px"
	 viewBox="0 0 496 496" style="enable-background:new 0 0 496 496;" xml:space="preserve">
<g>
	<g>
		<g>
			<path d="M248,64C146.544,64,64,146.544,64,248s82.544,184,184,184s184-82.544,184-184S349.456,64,248,64z M383.32,148.872
				c18.952,25.8,30.656,57.128,32.264,91.128h-63.808c-1.016-22.792-6.28-43.928-13.912-63.048
				C361.272,167.792,375.624,156.488,383.32,148.872z M335.712,256c-0.536,10.736-2.16,21.544-4.832,32.288
				C329.92,288.2,328.984,288,328,288c-13.488,0-24.992,8.408-29.696,20.24c-13.272-2.344-27.432-3.696-42.304-4.056V256H335.712z
				 M256,240v-48.232c26.744-0.648,48.704-4.376,66.52-9.64c7.2,17.664,12.208,37.08,13.256,57.872H256z M328,304
				c8.824,0,16,7.176,16,16c0,8.824-7.176,16-16,16c-8.824,0-16-7.176-16-16C312,311.176,319.176,304,328,304z M373.2,136.368
				c-5.952,6.16-18.856,17.104-41.792,25.952c-17.624-36.392-42.736-64.192-59.848-80.472
				C311.768,87.536,347.376,107.432,373.2,136.368z M256,89.36c15.472,14.224,41.648,41.624,59.848,78.048
				c-16.04,4.528-35.792,7.752-59.848,8.368v-8.912c13.76-3.576,24-16,24-30.864s-10.24-27.288-24-30.864V89.36z M224.504,81.84
				c-17.064,16.232-42.072,43.968-59.744,80.4c-22.864-8.856-35.872-19.768-41.912-25.92
				C148.688,107.392,184.296,87.504,224.504,81.84z M239.992,256v48.232c-26.728,0.648-48.672,4.376-66.48,9.632
				c-4.6-11.288-8.2-23.312-10.544-35.92c9.768-3.592,17.248-11.76,19.896-21.944H200v-16h-17.144
				c-2.648-10.184-10.128-18.352-19.896-21.944c2.344-12.608,5.944-24.632,10.552-35.92c17.808,5.256,39.752,8.984,66.48,9.632V240
				h-24v16H239.992z M152,264c-8.824,0-16-7.176-16-16c0-8.824,7.176-16,16-16c8.824,0,16,7.176,16,16
				C168,256.824,160.824,264,152,264z M112.672,148.872c7.712,7.624,22.104,18.952,45.576,28.12
				c-4.936,12.352-8.8,25.576-11.272,39.512c-12.592,2.008-22.68,11.32-25.84,23.496H80.408
				C82.024,206,93.72,174.672,112.672,148.872z M112.672,347.128C93.72,321.328,82.016,290,80.408,256h40.728
				c3.168,12.168,13.256,21.488,25.84,23.496c2.472,13.944,6.336,27.16,11.272,39.512
				C134.776,328.176,120.384,339.504,112.672,347.128z M122.8,359.632c5.96-6.176,18.904-17.136,41.904-25.992
				c17.672,36.488,42.72,64.272,59.8,80.52C184.272,408.488,148.64,388.584,122.8,359.632z M240,406.632
				c-15.472-14.248-41.648-41.696-59.832-78.04c16.032-4.528,35.784-7.752,59.832-8.368V406.632z M240,175.776
				c-23.984-0.624-43.736-3.888-59.784-8.464c18.176-36.296,44.32-63.712,59.784-77.944v15.768c-13.76,3.576-24,16-24,30.864
				s10.24,27.288,24,30.864V175.776z M232,136c0-8.824,7.176-16,16-16c8.824,0,16,7.176,16,16c0,8.824-7.176,16-16,16
				C239.176,152,232,144.824,232,136z M256,406.648v-86.464c14.264,0.36,27.8,1.688,40.416,3.968
				c1.056,8.024,5.04,15.056,10.912,20.072C290.2,372.824,269.208,394.528,256,406.648z M271.456,414.168
				c14.128-13.496,33.776-34.976,50.248-62.8c2.04,0.4,4.144,0.632,6.296,0.632c8.768,0,16.712-3.552,22.496-9.288
				c11.28,6.4,18.608,12.752,22.68,16.944C347.328,388.608,311.696,408.504,271.456,414.168z M358.576,328.92
				c0.84-2.848,1.424-5.8,1.424-8.92c0-10.952-5.544-20.624-13.96-26.392c3.208-12.496,5.104-25.088,5.672-37.608h63.88
				c-1.616,34.016-13.328,65.36-32.296,91.168C378.2,342.136,370.16,335.512,358.576,328.92z"/>
			<path d="M496,248C496,111.256,384.744,0,248,0S0,111.256,0,248s111.256,248,248,248v-16C120.072,480,16,375.928,16,248
				S120.072,16,248,16s232,104.072,232,232c0,57.144-20.608,111.296-58.264,153.752l-5.848-35.064l-15.784,2.632l9.12,54.68H472v-16
				h-34.592C475.28,363.288,496,307.168,496,248z"/>
		</g>
	</g>
</g>
<g>
</g>
<g>
</g>
<g>
</g>
<g>
</g>
<g>
</g>
<g>
</g>
<g>
</g>
<g>
</g>
<g>
</g>
<g>
</g>
<g>
</g>
<g>
</g>
<g>
</g>
<g>
</g>
<g>
</g>
</svg>
